<?xml version="1.0" encoding="utf-8"?>
<!-- Generator: Adobe Illustrator 19.0.0, SVG Export Plug-In . SVG Version: 6.00 Build 0)  -->
<svg version="1.1" id="Camada_1" xmlns="http://www.w3.org/2000/svg" xmlns:xlink="http://www.w3.org/1999/xlink" x="0px" y="0px"
	 viewBox="0 0 612 792" style="enable-background:new 0 0 612 792;" xml:space="preserve">
<style type="text/css">
	.st0{stroke:#000000;stroke-width:5;stroke-miterlimit:10;}
	.st1{fill:none;stroke:#000000;stroke-width:3.5;stroke-miterlimit:10;}
	.st2{fill:none;}
	.st3{fill:#FFFFFF;}
	.st4{fill:none;stroke:#FFFFFF;stroke-width:3.5;stroke-miterlimit:10;}
	.st5{fill:none;stroke:#FFFFFF;stroke-miterlimit:10;}
</style>
<rect id="XMLID_1_" x="319.2" class="st0" width="292.8" height="792"/>
<g id="XMLID_3_">
	<g id="XMLID_35_">
		<path id="XMLID_32_" d="M76,398.4c0,2.7-0.2,5.1-0.7,7S74,408.8,73,410c-1,1.2-2.2,2.1-3.7,2.6c-1.5,0.5-3.2,0.8-5.2,0.8
			c-1.7,0-3.3-0.3-4.7-0.9c-1.4-0.6-2.6-1.4-3.6-2.4c-1-1.1-1.8-2.3-2.3-3.8c-0.5-1.5-0.8-3.1-0.8-5l3.3,0c0.1,3,0.9,5.2,2.2,6.7
			c1.3,1.4,3.3,2.1,5.9,2.1c1.3,0,2.5-0.1,3.6-0.4c1.1-0.3,2-0.9,2.7-1.7s1.3-2,1.7-3.4c0.4-1.5,0.6-3.4,0.6-5.8v-31.6H76V398.4z"/>
		<path id="XMLID_304_" d="M102.2,379.6c2.2,0,4.2,0.4,5.9,1.1c1.8,0.8,3.3,1.9,4.5,3.3c1.2,1.5,2.2,3.2,2.9,5.3
			c0.7,2.1,1,4.4,1,7.1c0,2.7-0.3,5.1-1,7.2c-0.7,2.1-1.6,3.9-2.9,5.3c-1.2,1.5-2.8,2.6-4.5,3.3c-1.8,0.8-3.7,1.1-5.9,1.1
			s-4.1-0.4-5.9-1.1c-1.8-0.7-3.3-1.8-4.5-3.3c-1.2-1.5-2.2-3.2-2.9-5.3c-0.7-2.1-1-4.5-1-7.2c0-2.7,0.3-5,1-7.1
			c0.7-2.1,1.6-3.9,2.9-5.3c1.2-1.4,2.8-2.5,4.5-3.3C98.1,379.9,100,379.6,102.2,379.6z M102.2,410.1c1.6,0,3.1-0.3,4.5-0.9
			c1.3-0.6,2.5-1.4,3.5-2.6c1-1.1,1.7-2.6,2.3-4.3c0.5-1.7,0.8-3.7,0.8-6c0-2.2-0.3-4.2-0.8-5.9c-0.5-1.7-1.3-3.1-2.3-4.2
			c-1-1.1-2.1-2-3.5-2.5c-1.3-0.6-2.8-0.9-4.5-0.9c-1.7,0-3.2,0.3-4.5,0.9c-1.3,0.6-2.5,1.4-3.5,2.5c-1,1.1-1.7,2.5-2.2,4.2
			c-0.5,1.7-0.8,3.7-0.8,5.9c0,2.3,0.3,4.3,0.8,6c0.5,1.7,1.3,3.1,2.2,4.3c1,1.1,2.1,2,3.5,2.6C99,409.8,100.5,410.1,102.2,410.1z"
			/>
		<path id="XMLID_307_" d="M238.8,413.4c-2.2,0-4.3-0.4-6.1-1.1s-3.4-1.9-4.7-3.3c-1.3-1.5-2.3-3.2-3.1-5.3
			c-0.7-2.1-1.1-4.5-1.1-7.2c0-2.6,0.3-4.9,1-7c0.7-2.1,1.7-3.9,2.9-5.3c1.3-1.5,2.8-2.6,4.5-3.3c1.7-0.8,3.7-1.2,5.8-1.2
			c2.2,0,4.2,0.4,5.9,1.2c1.8,0.8,3.3,1.9,4.5,3.3c1.2,1.5,2.2,3.2,2.9,5.3c0.7,2.1,1,4.4,1,7.1v0.7h-25.3c0.2,2.2,0.6,4.1,1.2,5.7
			c0.6,1.6,1.5,2.9,2.5,4s2.2,1.9,3.5,2.4c1.3,0.5,2.8,0.8,4.4,0.8c1.1,0,2.2-0.1,3.3-0.4c1.1-0.3,2.1-0.7,3-1.2s1.7-1.2,2.3-2
			c0.6-0.8,1-1.7,1.1-2.7h3.3c-0.3,1.5-0.8,2.9-1.6,4c-0.8,1.2-1.7,2.2-2.9,3c-1.1,0.8-2.4,1.4-3.9,1.8
			C242,413.2,240.5,413.4,238.8,413.4z M249.2,393.9c-0.6-3.7-1.8-6.4-3.8-8.3c-2-1.8-4.4-2.7-7.2-2.7c-1.4,0-2.7,0.2-3.9,0.7
			c-1.2,0.4-2.3,1.1-3.3,2c-1,0.9-1.8,2.1-2.4,3.4c-0.7,1.4-1.1,3-1.4,4.9H249.2z"/>
		<path id="XMLID_310_" d="M287.8,380.4l-11.7,32.7c-0.7,1.9-1.4,3.6-2.2,5.1c-0.7,1.5-1.5,2.7-2.4,3.7c-0.9,1-1.8,1.7-2.8,2.2
			c-1,0.5-2.2,0.7-3.5,0.7c-0.4,0-0.9,0-1.3,0c-0.4,0-0.8-0.1-1.2-0.1v-3.6c0.2,0,0.5,0,0.7,0s0.5,0,0.8,0c1.9,0,3.5-0.7,4.9-2
			c1.4-1.3,2.5-3.5,3.6-6.4l-12.2-32.5h3.7l10.5,28.1l9.6-28.1H287.8z"/>
	</g>
	<path id="XMLID_34_" class="st1" d="M166.4,413.4v-30.2c0,0,7.7-3,13.9,0"/>
	<path id="XMLID_33_" class="st1" d="M191.1,412.5v-28.9c0,0,22.6-8.1,22,11.7l0,17.2"/>
	<g id="XMLID_5_">
		<path id="XMLID_302_" class="st2" d="M113.6,392.5v7.9c0,6.6-5.4,12-12,12h0c-6.6,0-12-5.4-12-12v-7.9"/>
	</g>
	<path id="XMLID_31_" class="st1" d="M150.9,380.5v19.4c0,6.6-5.1,12-11.3,12h0c-6.2,0-11.3-5.4-11.3-12v-19.4"/>
	<g id="XMLID_9_">
		<path id="XMLID_16_" d="M194.9,423.2c0,0-0.1,0.5-0.4,1.3c-0.1,0.4-0.3,1-0.4,1.6c-0.2,0.6-0.4,1.4-0.7,2.2
			c-1.1,3.3-2.9,8.2-6.2,14c-3.3,5.7-8.1,12.3-15,18.4c-0.9,0.8-1.7,1.5-2.7,2.3c-0.9,0.7-1.9,1.5-2.8,2.2c-1,0.7-2,1.5-3.1,2.2
			c-1.1,0.7-2.1,1.4-3.2,2.1c-4.4,2.7-9.4,5.1-14.7,7.1c-5.4,2-11.1,3.5-17.2,4.5c-3,0.5-6.2,0.8-9.4,1c-1.6,0-3.2,0.1-4.8,0.1
			c-0.8,0-1.6,0-2.4,0l-1.2,0l-1.2-0.1c-6.6-0.4-13.3-1.4-20-3.3c-6.7-1.9-13.2-4.7-19.5-8.2c-6.3-3.5-12.2-8-17.5-13.1
			c-5.3-5.2-10.1-11-14.1-17.5C30.5,427,26,411.7,25.8,396.2l0-0.7l0-0.2l0-0.2l0-0.4l0-1.4c0-0.9,0-1.9,0.1-2.8
			c0.2-1.9,0.2-3.9,0.5-5.8l0.4-2.9l0.5-2.8l0.3-1.4l0.3-1.4l0.7-2.8c1-3.7,2.2-7.4,3.7-10.9c0.7-1.8,1.6-3.5,2.3-5.2l1.3-2.5
			c0.4-0.8,0.9-1.7,1.4-2.5l1.4-2.5l1.6-2.4c1-1.6,2.2-3.1,3.3-4.6c2.3-2.9,4.7-5.8,7.4-8.4c5.2-5.3,11.1-9.8,17.2-13.5
			c12.4-7.5,26.1-11.5,39.2-12.5c6.6-0.5,12.9-0.3,19.1,0.5c6.1,0.8,11.9,2.2,17.4,4c10.9,3.6,19.9,9.3,26.8,15.5
			c6.9,6.2,11.9,12.5,15.4,18.1c3.5,5.6,5.5,10.4,6.6,13.8c0.5,1.7,0.9,3,1.2,3.8c0.2,0.9,0.4,1.3,0.4,1.3s-0.1-0.4-0.4-1.3
			c-0.3-0.9-0.7-2.1-1.3-3.8c-1.3-3.3-3.5-7.9-7.2-13.3c-3.7-5.4-8.9-11.4-15.8-17.2c-6.9-5.8-15.9-10.9-26.5-14.2
			c-10.6-3.3-22.7-4.7-35.3-3.5c-6.3,0.6-12.7,1.9-18.9,4c-6.2,2.1-12.5,4.9-18.3,8.5c-11.7,7.2-21.9,17.5-29,30
			c-0.5,0.8-0.9,1.6-1.3,2.4l-1.2,2.4c-0.7,1.6-1.6,3.2-2.2,4.9c-1.4,3.3-2.5,6.8-3.4,10.3l-0.6,2.6l-0.3,1.3l-0.2,1.3l-0.5,2.7
			l-0.3,2.7c-0.3,1.8-0.3,3.6-0.5,5.4c0,0.9-0.1,1.9-0.1,2.8l0,1.4l0,0.4l0,0.3l0,0.7c0.1,14.6,4.3,29,11.7,41.3
			c0.4,0.8,0.9,1.5,1.4,2.3c0.5,0.7,1,1.5,1.5,2.2c1,1.4,2.1,2.9,3.2,4.3c2.2,2.8,4.6,5.4,7.1,7.9c5.1,4.9,10.6,9.2,16.5,12.6
			c5.9,3.4,12.1,6.2,18.4,8.1c6.3,1.9,12.8,3.1,19,3.6l1.2,0.1l1.2,0c0.8,0,1.6,0.1,2.4,0.1c1.5,0.1,3.1,0,4.6,0
			c3.1-0.1,6.1-0.3,9-0.7c5.9-0.8,11.5-2.1,16.8-3.9c5.2-1.8,10.1-4,14.5-6.5c1.1-0.6,2.2-1.3,3.2-1.9c1-0.7,2-1.3,3-2
			c1-0.7,1.9-1.4,2.9-2.1c0.9-0.7,1.8-1.4,2.7-2.1c7-5.8,12-12,15.4-17.5c1.7-2.8,3.1-5.4,4.2-7.6c1.1-2.3,1.9-4.3,2.5-5.9
			c0.3-0.8,0.6-1.6,0.8-2.2c0.2-0.6,0.4-1.2,0.5-1.6C194.8,423.6,194.9,423.2,194.9,423.2z"/>
	</g>
</g>
<g id="XMLID_2_">
	<g id="XMLID_46_">
		<path id="XMLID_292_" class="st3" d="M385.9,399.9c0,2.7-0.2,5.1-0.7,7s-1.2,3.4-2.2,4.6c-1,1.2-2.2,2.1-3.7,2.6
			c-1.5,0.5-3.2,0.8-5.2,0.8c-1.7,0-3.3-0.3-4.7-0.9c-1.4-0.6-2.6-1.4-3.6-2.4c-1-1.1-1.8-2.3-2.3-3.8s-0.8-3.1-0.8-5l3.3,0
			c0.1,3,0.9,5.2,2.2,6.7c1.3,1.4,3.3,2.1,5.9,2.1c1.3,0,2.5-0.1,3.6-0.4c1.1-0.3,2-0.9,2.7-1.7s1.3-2,1.7-3.4
			c0.4-1.5,0.6-3.4,0.6-5.8v-31.6h3.3V399.9z"/>
		<path id="XMLID_294_" class="st3" d="M412.1,381.1c2.2,0,4.2,0.4,5.9,1.1c1.8,0.8,3.3,1.9,4.5,3.3c1.2,1.5,2.2,3.2,2.9,5.3
			c0.7,2.1,1,4.4,1,7.1c0,2.7-0.3,5.1-1,7.2c-0.7,2.1-1.6,3.9-2.9,5.3c-1.2,1.5-2.8,2.6-4.5,3.3s-3.7,1.1-5.9,1.1s-4.1-0.4-5.9-1.1
			c-1.8-0.7-3.3-1.8-4.5-3.3c-1.2-1.5-2.2-3.2-2.9-5.3c-0.7-2.1-1-4.5-1-7.2c0-2.7,0.3-5,1-7.1c0.7-2.1,1.6-3.9,2.9-5.3
			c1.2-1.4,2.8-2.5,4.5-3.3C408,381.5,409.9,381.1,412.1,381.1z M412.1,411.6c1.6,0,3.1-0.3,4.5-0.9c1.3-0.6,2.5-1.4,3.5-2.6
			c1-1.1,1.7-2.6,2.3-4.3c0.5-1.7,0.8-3.7,0.8-6c0-2.2-0.3-4.2-0.8-5.9c-0.5-1.7-1.3-3.1-2.3-4.2c-1-1.1-2.1-2-3.5-2.5
			c-1.3-0.6-2.8-0.9-4.5-0.9c-1.7,0-3.2,0.3-4.5,0.9c-1.3,0.6-2.5,1.4-3.5,2.5c-1,1.1-1.7,2.5-2.2,4.2c-0.5,1.7-0.8,3.7-0.8,5.9
			c0,2.3,0.3,4.3,0.8,6c0.5,1.7,1.3,3.1,2.2,4.3s2.1,2,3.5,2.6C408.9,411.4,410.4,411.6,412.1,411.6z"/>
		<path id="XMLID_297_" class="st3" d="M548.8,415c-2.2,0-4.3-0.4-6.1-1.1s-3.4-1.9-4.7-3.3c-1.3-1.5-2.3-3.2-3.1-5.3
			c-0.7-2.1-1.1-4.5-1.1-7.2c0-2.6,0.3-4.9,1-7c0.7-2.1,1.7-3.9,2.9-5.3c1.3-1.5,2.8-2.6,4.5-3.3c1.7-0.8,3.7-1.2,5.8-1.2
			c2.2,0,4.2,0.4,5.9,1.2c1.8,0.8,3.3,1.9,4.5,3.3c1.2,1.5,2.2,3.2,2.9,5.3c0.7,2.1,1,4.4,1,7.1v0.7h-25.3c0.2,2.2,0.6,4.1,1.2,5.7
			c0.6,1.6,1.5,2.9,2.5,4s2.2,1.9,3.5,2.4c1.3,0.5,2.8,0.8,4.4,0.8c1.1,0,2.2-0.1,3.3-0.4c1.1-0.3,2.1-0.7,3-1.2s1.7-1.2,2.3-2
			c0.6-0.8,1-1.7,1.1-2.7h3.3c-0.3,1.5-0.8,2.9-1.6,4c-0.8,1.2-1.7,2.2-2.9,3c-1.1,0.8-2.4,1.4-3.9,1.8
			C551.9,414.8,550.4,415,548.8,415z M559.1,395.5c-0.6-3.7-1.8-6.4-3.8-8.3c-2-1.8-4.4-2.7-7.2-2.7c-1.4,0-2.7,0.2-3.9,0.7
			c-1.2,0.4-2.3,1.1-3.3,2c-1,0.9-1.8,2.1-2.4,3.4c-0.7,1.4-1.1,3-1.4,4.9H559.1z"/>
		<path id="XMLID_300_" class="st3" d="M597.7,382L586,414.7c-0.7,1.9-1.4,3.6-2.2,5.1c-0.7,1.5-1.5,2.7-2.4,3.7
			c-0.9,1-1.8,1.7-2.8,2.2c-1,0.5-2.2,0.7-3.5,0.7c-0.4,0-0.9,0-1.3,0c-0.4,0-0.8-0.1-1.2-0.1v-3.6c0.2,0,0.5,0,0.7,0s0.5,0,0.8,0
			c1.9,0,3.5-0.7,4.9-2c1.4-1.3,2.5-3.5,3.6-6.4L570.3,382h3.7l10.5,28.1l9.6-28.1H597.7z"/>
	</g>
	<path id="XMLID_45_" class="st4" d="M476.3,415v-30.2c0,0,7.7-3,13.9,0"/>
	<path id="XMLID_44_" class="st4" d="M501,414v-28.9c0,0,22.6-8.1,22,11.7l0,17.2"/>
	<path id="XMLID_43_" class="st5" d="M423.5,394.1v7.9c0,6.6-5.4,12-12,12h0c-6.6,0-12-5.4-12-12v-7.9"/>
	<path id="XMLID_40_" class="st4" d="M460.8,382.1v19.4c0,6.6-5.1,12-11.3,12h0c-6.2,0-11.3-5.4-11.3-12v-19.4"/>
	<g id="XMLID_37_">
		<path id="XMLID_17_" class="st3" d="M504.9,424.8c0,0-0.1,0.5-0.4,1.3c-0.1,0.4-0.3,1-0.4,1.6c-0.2,0.6-0.4,1.4-0.7,2.2
			c-1.1,3.3-2.9,8.2-6.2,14c-3.3,5.7-8.1,12.3-15,18.4c-0.9,0.8-1.7,1.5-2.7,2.3c-0.9,0.7-1.9,1.5-2.8,2.2c-1,0.7-2,1.5-3.1,2.2
			c-1.1,0.7-2.1,1.4-3.2,2.1c-4.4,2.7-9.4,5.1-14.7,7.1c-5.4,2-11.1,3.5-17.2,4.5c-3,0.5-6.2,0.8-9.4,1c-1.6,0-3.2,0.1-4.8,0.1
			c-0.8,0-1.6,0-2.4,0l-1.2,0l-1.2-0.1c-6.6-0.4-13.3-1.4-20-3.3c-6.7-1.9-13.2-4.7-19.5-8.2c-6.3-3.5-12.2-8-17.5-13.1
			c-5.3-5.2-10.1-11-14.1-17.5c-7.9-12.9-12.4-28.3-12.6-43.7l0-0.7l0-0.2l0-0.2l0-0.4l0-1.4c0-0.9,0-1.9,0.1-2.8
			c0.2-1.9,0.2-3.9,0.5-5.8l0.4-2.9l0.5-2.8l0.3-1.4l0.3-1.4l0.7-2.8c1-3.7,2.2-7.4,3.7-10.9c0.7-1.8,1.6-3.5,2.3-5.2l1.3-2.5
			c0.4-0.8,0.9-1.7,1.4-2.5l1.4-2.5l1.6-2.4c1-1.6,2.2-3.1,3.3-4.6c2.3-2.9,4.7-5.8,7.4-8.4c5.2-5.3,11.1-9.8,17.2-13.5
			c12.4-7.5,26.1-11.5,39.2-12.5c6.6-0.5,12.9-0.3,19.1,0.5c6.1,0.8,11.9,2.2,17.4,4c10.9,3.6,19.9,9.3,26.8,15.5
			c6.9,6.2,11.9,12.5,15.4,18.1c3.5,5.6,5.5,10.4,6.6,13.8c0.5,1.7,0.9,3,1.2,3.8c0.2,0.9,0.4,1.3,0.4,1.3s-0.1-0.4-0.4-1.3
			c-0.3-0.9-0.7-2.1-1.3-3.8c-1.3-3.3-3.5-7.9-7.2-13.3c-3.7-5.4-8.9-11.4-15.8-17.2c-6.9-5.8-15.9-10.9-26.5-14.2
			c-10.6-3.3-22.7-4.7-35.3-3.5c-6.3,0.6-12.7,1.9-18.9,4c-6.2,2.1-12.5,4.9-18.3,8.5c-11.7,7.2-21.9,17.5-29,30
			c-0.5,0.8-0.9,1.6-1.3,2.4l-1.2,2.4c-0.7,1.6-1.6,3.2-2.2,4.9c-1.4,3.3-2.5,6.8-3.4,10.3l-0.6,2.6l-0.3,1.3l-0.2,1.3l-0.5,2.7
			l-0.3,2.7c-0.3,1.8-0.3,3.6-0.5,5.4c0,0.9-0.1,1.9-0.1,2.8l0,1.4l0,0.4l0,0.3l0,0.7c0.1,14.6,4.3,29,11.7,41.3
			c0.4,0.8,0.9,1.5,1.4,2.3c0.5,0.7,1,1.5,1.5,2.2c1,1.4,2.1,2.9,3.2,4.3c2.2,2.8,4.6,5.4,7.1,7.9c5.1,4.9,10.6,9.2,16.5,12.6
			c5.9,3.4,12.1,6.2,18.4,8.1c6.3,1.9,12.8,3.1,19,3.6l1.2,0.1l1.2,0c0.8,0,1.6,0.1,2.4,0.1c1.5,0.1,3.1,0,4.6,0
			c3.1-0.1,6.1-0.3,9-0.7c5.9-0.8,11.5-2.1,16.8-3.9c5.2-1.8,10.1-4,14.5-6.5c1.1-0.6,2.2-1.3,3.2-1.9c1-0.7,2-1.3,3-2
			c1-0.7,1.9-1.4,2.9-2.1c0.9-0.7,1.8-1.4,2.7-2.1c7-5.8,12-12,15.4-17.5c1.7-2.8,3.1-5.4,4.2-7.6c1.1-2.3,1.9-4.3,2.5-5.9
			c0.3-0.8,0.6-1.6,0.8-2.2c0.2-0.6,0.4-1.2,0.5-1.6C504.7,425.2,504.9,424.8,504.9,424.8z"/>
	</g>
</g>
<g id="XMLID_4_">
	<path id="XMLID_122_" d="M12.5,763.1l-0.1-1h0c-0.4,0.6-1.3,1.2-2.4,1.2c-1.6,0-2.4-1.1-2.4-2.2c0-1.9,1.7-2.9,4.7-2.9v-0.2
		c0-0.6-0.2-1.8-1.8-1.8c-0.7,0-1.5,0.2-2,0.6l-0.3-0.9c0.6-0.4,1.6-0.7,2.6-0.7c2.4,0,3,1.6,3,3.2v2.9c0,0.7,0,1.3,0.1,1.9H12.5z
		 M12.3,759.1c-1.5,0-3.3,0.2-3.3,1.8c0,0.9,0.6,1.4,1.3,1.4c1,0,1.7-0.6,1.9-1.3c0-0.1,0.1-0.3,0.1-0.5V759.1z"/>
	<path id="XMLID_125_" d="M21.1,753v2.2h2v1.1h-2v4.2c0,1,0.3,1.5,1.1,1.5c0.4,0,0.6,0,0.8-0.1L23,763c-0.3,0.1-0.7,0.2-1.3,0.2
		c-0.7,0-1.2-0.2-1.5-0.6c-0.4-0.4-0.5-1.1-0.5-2v-4.3h-1.2v-1.1h1.2v-1.9L21.1,753z"/>
	<path id="XMLID_127_" d="M26.3,753.1c0,0.5-0.3,0.9-0.9,0.9c-0.5,0-0.9-0.4-0.9-0.9c0-0.5,0.4-0.9,0.9-0.9
		C26,752.2,26.3,752.6,26.3,753.1z M24.7,763.1v-7.8h1.4v7.8H24.7z"/>
	<path id="XMLID_130_" d="M28.5,757.8c0-1,0-1.8-0.1-2.6h1.3l0.1,1.3h0c0.6-1,1.5-1.5,2.8-1.5c1.9,0,3.3,1.6,3.3,4
		c0,2.8-1.7,4.2-3.6,4.2c-1,0-1.9-0.5-2.4-1.2h0v4.2h-1.4V757.8z M29.9,759.9c0,0.2,0,0.4,0.1,0.6c0.3,1,1.1,1.7,2.1,1.7
		c1.5,0,2.4-1.2,2.4-3c0-1.6-0.8-2.9-2.3-2.9c-1,0-1.9,0.7-2.1,1.8c0,0.2-0.1,0.4-0.1,0.6V759.9z"/>
	<path id="XMLID_133_" d="M44.8,759.1c0,2.9-2,4.1-3.9,4.1c-2.1,0-3.7-1.5-3.7-4c0-2.6,1.7-4.1,3.9-4.1
		C43.2,755.1,44.8,756.7,44.8,759.1z M38.6,759.2c0,1.7,1,3,2.4,3c1.4,0,2.4-1.3,2.4-3c0-1.3-0.7-3-2.3-3
		C39.3,756.2,38.6,757.7,38.6,759.2z"/>
	<path id="XMLID_136_" d="M53.3,755.3c0,0.6-0.1,1.2-0.1,2.1v4.5c0,1.8-0.4,2.9-1.1,3.6c-0.8,0.7-1.9,0.9-2.8,0.9
		c-0.9,0-2-0.2-2.6-0.6l0.4-1.1c0.5,0.3,1.3,0.6,2.3,0.6c1.5,0,2.5-0.8,2.5-2.7v-0.9h0c-0.4,0.7-1.3,1.3-2.5,1.3
		c-1.9,0-3.3-1.6-3.3-3.8c0-2.6,1.7-4.1,3.5-4.1c1.4,0,2.1,0.7,2.4,1.4h0l0.1-1.2H53.3z M51.8,758.3c0-0.2,0-0.5-0.1-0.6
		c-0.3-0.8-1-1.5-2-1.5c-1.4,0-2.3,1.1-2.3,3c0,1.5,0.8,2.8,2.3,2.8c0.9,0,1.7-0.5,2-1.5c0.1-0.2,0.1-0.5,0.1-0.8V758.3z"/>
	<path id="XMLID_139_" d="M55.5,757.7c0-0.9,0-1.7-0.1-2.4h1.2l0,1.5h0.1c0.4-1,1.2-1.7,2.2-1.7c0.2,0,0.3,0,0.4,0v1.3
		c-0.1,0-0.3,0-0.5,0c-1,0-1.7,0.8-1.9,1.8c0,0.2-0.1,0.4-0.1,0.7v4.2h-1.4V757.7z"/>
	<path id="XMLID_141_" d="M65,763.1l-0.1-1h0c-0.4,0.6-1.3,1.2-2.4,1.2c-1.6,0-2.4-1.1-2.4-2.2c0-1.9,1.7-2.9,4.7-2.9v-0.2
		c0-0.6-0.2-1.8-1.8-1.8c-0.7,0-1.5,0.2-2,0.6l-0.3-0.9c0.6-0.4,1.6-0.7,2.6-0.7c2.4,0,3,1.6,3,3.2v2.9c0,0.7,0,1.3,0.1,1.9H65z
		 M64.8,759.1c-1.5,0-3.3,0.2-3.3,1.8c0,0.9,0.6,1.4,1.3,1.4c1,0,1.7-0.6,1.9-1.3c0-0.1,0.1-0.3,0.1-0.5V759.1z"/>
	<path id="XMLID_144_" d="M68.6,763.1v-6.7h-1.1v-1.1h1.1v-0.4c0-2.1,1.2-3.4,3.4-3.4c0.7,0,1.6,0.2,2,0.5l-0.4,1.1
		c-0.3-0.2-1-0.5-1.6-0.5c-1.5,0-1.9,1-1.9,2.3v0.4h4.5v7.8h-1.4v-6.7H70v6.7H68.6z"/>
	<path id="XMLID_146_" d="M81.2,763.1l-0.1-1h0c-0.4,0.6-1.3,1.2-2.4,1.2c-1.6,0-2.4-1.1-2.4-2.2c0-1.9,1.7-2.9,4.7-2.9v-0.2
		c0-0.6-0.2-1.8-1.8-1.8c-0.7,0-1.5,0.2-2,0.6l-0.3-0.9c0.6-0.4,1.6-0.7,2.6-0.7c2.4,0,3,1.6,3,3.2v2.9c0,0.7,0,1.3,0.1,1.9H81.2z
		 M81,759.1c-1.5,0-3.3,0.2-3.3,1.8c0,0.9,0.6,1.4,1.3,1.4c1,0,1.7-0.6,1.9-1.3c0-0.1,0.1-0.3,0.1-0.5V759.1z"/>
	<path id="XMLID_149_" d="M94.6,760.9c0,0.8,0,1.5,0.1,2.1h-1.3l-0.1-1.3h0c-0.4,0.6-1.2,1.5-2.6,1.5c-1.2,0-2.7-0.7-2.7-3.4v-4.6
		h1.4v4.3c0,1.5,0.5,2.5,1.7,2.5c1,0,1.6-0.7,1.9-1.3c0.1-0.2,0.1-0.5,0.1-0.7v-4.8h1.4V760.9z"/>
	<path id="XMLID_151_" d="M96.8,761.6c0.4,0.3,1.2,0.6,1.9,0.6c1,0,1.5-0.5,1.5-1.2c0-0.7-0.4-1-1.5-1.4c-1.4-0.5-2.1-1.3-2.1-2.2
		c0-1.3,1-2.3,2.7-2.3c0.8,0,1.5,0.2,1.9,0.5l-0.4,1c-0.3-0.2-0.9-0.5-1.6-0.5c-0.8,0-1.3,0.5-1.3,1.1c0,0.6,0.5,0.9,1.5,1.3
		c1.4,0.5,2.1,1.2,2.1,2.4c0,1.4-1.1,2.3-2.9,2.3c-0.9,0-1.6-0.2-2.2-0.5L96.8,761.6z"/>
	<path id="XMLID_153_" d="M107.7,763.1l-0.1-1h0c-0.4,0.6-1.3,1.2-2.4,1.2c-1.6,0-2.4-1.1-2.4-2.2c0-1.9,1.7-2.9,4.7-2.9v-0.2
		c0-0.6-0.2-1.8-1.8-1.8c-0.7,0-1.5,0.2-2,0.6l-0.3-0.9c0.6-0.4,1.6-0.7,2.6-0.7c2.4,0,3,1.6,3,3.2v2.9c0,0.7,0,1.3,0.1,1.9H107.7z
		 M107.5,759.1c-1.5,0-3.3,0.2-3.3,1.8c0,0.9,0.6,1.4,1.3,1.4c1,0,1.7-0.6,1.9-1.3c0-0.1,0.1-0.3,0.1-0.5V759.1z"/>
	<path id="XMLID_156_" d="M117.9,751.6v9.4c0,0.7,0,1.5,0.1,2h-1.3l-0.1-1.4h0c-0.4,0.9-1.4,1.5-2.7,1.5c-1.9,0-3.3-1.6-3.3-4
		c0-2.6,1.6-4.2,3.5-4.2c1.2,0,2,0.6,2.4,1.2h0v-4.7H117.9z M116.5,758.4c0-0.2,0-0.4-0.1-0.6c-0.2-0.9-1-1.6-2.1-1.6
		c-1.5,0-2.3,1.3-2.3,3c0,1.6,0.8,2.9,2.3,2.9c1,0,1.8-0.6,2.1-1.7c0-0.2,0.1-0.4,0.1-0.6V758.4z"/>
	<path id="XMLID_159_" d="M124.6,763.1l-0.1-1h0c-0.4,0.6-1.3,1.2-2.4,1.2c-1.6,0-2.4-1.1-2.4-2.2c0-1.9,1.7-2.9,4.7-2.9v-0.2
		c0-0.6-0.2-1.8-1.8-1.8c-0.7,0-1.5,0.2-2,0.6l-0.3-0.9c0.6-0.4,1.6-0.7,2.6-0.7c2.4,0,3,1.6,3,3.2v2.9c0,0.7,0,1.3,0.1,1.9H124.6z
		 M124.4,759.1c-1.5,0-3.3,0.2-3.3,1.8c0,0.9,0.6,1.4,1.3,1.4c1,0,1.7-0.6,1.9-1.3c0-0.1,0.1-0.3,0.1-0.5V759.1z"/>
	<path id="XMLID_162_" d="M132.3,759.4c0,1.9,1.3,2.7,2.7,2.7c1,0,1.6-0.2,2.2-0.4l0.2,1c-0.5,0.2-1.4,0.5-2.6,0.5
		c-2.4,0-3.8-1.6-3.8-3.9c0-2.4,1.4-4.2,3.7-4.2c2.6,0,3.2,2.2,3.2,3.7c0,0.3,0,0.5,0,0.7H132.3z M136.4,758.4c0-0.9-0.4-2.3-2-2.3
		c-1.4,0-2.1,1.3-2.2,2.3H136.4z M136.8,751.9l-2,2.3h-1l1.4-2.3H136.8z"/>
	<path id="XMLID_166_" d="M149.5,760.9c0,0.8,0,1.5,0.1,2.1h-1.3l-0.1-1.3h0c-0.4,0.6-1.2,1.5-2.6,1.5c-1.2,0-2.7-0.7-2.7-3.4v-4.6
		h1.4v4.3c0,1.5,0.5,2.5,1.7,2.5c1,0,1.6-0.7,1.9-1.3c0.1-0.2,0.1-0.5,0.1-0.7v-4.8h1.4V760.9z"/>
	<path id="XMLID_168_" d="M151.9,757.4c0-0.8,0-1.5-0.1-2.1h1.2l0.1,1.3h0c0.4-0.7,1.2-1.4,2.5-1.4c1.1,0,1.9,0.6,2.2,1.6h0
		c0.2-0.4,0.5-0.8,0.9-1c0.5-0.4,1-0.5,1.7-0.5c1,0,2.6,0.7,2.6,3.4v4.6h-1.4v-4.4c0-1.5-0.5-2.4-1.7-2.4c-0.8,0-1.4,0.6-1.7,1.3
		c-0.1,0.2-0.1,0.5-0.1,0.7v4.8h-1.4v-4.7c0-1.2-0.5-2.1-1.6-2.1c-0.9,0-1.5,0.7-1.8,1.4c-0.1,0.2-0.1,0.5-0.1,0.7v4.7h-1.4V757.4z"
		/>
	<path id="XMLID_170_" d="M169.7,763.1l-0.1-1h0c-0.4,0.6-1.3,1.2-2.4,1.2c-1.6,0-2.4-1.1-2.4-2.2c0-1.9,1.7-2.9,4.7-2.9v-0.2
		c0-0.6-0.2-1.8-1.8-1.8c-0.7,0-1.5,0.2-2,0.6l-0.3-0.9c0.6-0.4,1.6-0.7,2.6-0.7c2.4,0,3,1.6,3,3.2v2.9c0,0.7,0,1.3,0.1,1.9H169.7z
		 M169.4,759.1c-1.5,0-3.3,0.2-3.3,1.8c0,0.9,0.6,1.4,1.3,1.4c1,0,1.7-0.6,1.9-1.3c0-0.1,0.1-0.3,0.1-0.5V759.1z"/>
	<path id="XMLID_173_" d="M177.1,755.3l1.5,4.4c0.3,0.7,0.5,1.4,0.6,2h0c0.2-0.6,0.4-1.3,0.7-2l1.5-4.4h1.5l-3.1,7.8h-1.4l-3-7.8
		H177.1z"/>
	<path id="XMLID_175_" d="M184.9,759.4c0,1.9,1.3,2.7,2.7,2.7c1,0,1.6-0.2,2.2-0.4l0.2,1c-0.5,0.2-1.4,0.5-2.6,0.5
		c-2.4,0-3.8-1.6-3.8-3.9c0-2.4,1.4-4.2,3.7-4.2c2.6,0,3.2,2.2,3.2,3.7c0,0.3,0,0.5,0,0.7H184.9z M189.1,758.4c0-0.9-0.4-2.3-2-2.3
		c-1.4,0-2.1,1.3-2.2,2.3H189.1z"/>
	<path id="XMLID_178_" d="M192.2,757.7c0-0.9,0-1.7-0.1-2.4h1.2l0,1.5h0.1c0.4-1,1.2-1.7,2.2-1.7c0.2,0,0.3,0,0.4,0v1.3
		c-0.1,0-0.3,0-0.5,0c-1,0-1.7,0.8-1.9,1.8c0,0.2-0.1,0.4-0.1,0.7v4.2h-1.4V757.7z"/>
	<path id="XMLID_180_" d="M202.9,762.8c-0.3,0.2-1.1,0.4-2,0.5l-0.4,0.6c0.6,0.1,1.1,0.5,1.1,1.1c0,1-0.8,1.3-1.7,1.3
		c-0.4,0-0.8-0.1-1.1-0.3l0.2-0.7c0.3,0.2,0.6,0.2,0.9,0.2c0.4,0,0.7-0.1,0.7-0.5c0-0.4-0.5-0.6-1.3-0.7l0.7-1.2
		c-2-0.3-3.3-1.8-3.3-4c0-2.4,1.6-4.1,4.2-4.1c0.8,0,1.6,0.2,2,0.4l-0.3,1.1c-0.3-0.2-0.9-0.4-1.6-0.4c-1.8,0-2.8,1.3-2.8,3
		c0,1.8,1.2,2.9,2.7,2.9c0.8,0,1.3-0.2,1.7-0.4L202.9,762.8z"/>
	<path id="XMLID_182_" d="M208.9,763.1l-0.1-1h0c-0.4,0.6-1.3,1.2-2.4,1.2c-1.6,0-2.4-1.1-2.4-2.2c0-1.9,1.7-2.9,4.7-2.9v-0.2
		c0-0.6-0.2-1.8-1.8-1.8c-0.7,0-1.5,0.2-2,0.6l-0.3-0.9c0.6-0.4,1.6-0.7,2.6-0.7c2.4,0,3,1.6,3,3.2v2.9c0,0.7,0,1.3,0.1,1.9H208.9z
		 M208.7,759.1c-1.5,0-3.3,0.2-3.3,1.8c0,0.9,0.6,1.4,1.3,1.4c1,0,1.7-0.6,1.9-1.3c0-0.1,0.1-0.3,0.1-0.5V759.1z"/>
	<path id="XMLID_185_" d="M219.4,759.1c0,2.9-2,4.1-3.9,4.1c-2.1,0-3.7-1.5-3.7-4c0-2.6,1.7-4.1,3.9-4.1
		C217.9,755.1,219.4,756.7,219.4,759.1z M213.2,759.2c0,1.7,1,3,2.4,3c1.4,0,2.4-1.3,2.4-3c0-1.3-0.7-3-2.3-3
		C213.9,756.2,213.2,757.7,213.2,759.2z"/>
	<path id="XMLID_188_" d="M229,763.1l-0.1-1h0c-0.4,0.6-1.3,1.2-2.4,1.2c-1.6,0-2.4-1.1-2.4-2.2c0-1.9,1.7-2.9,4.7-2.9v-0.2
		c0-0.6-0.2-1.8-1.8-1.8c-0.7,0-1.5,0.2-2,0.6l-0.3-0.9c0.6-0.4,1.6-0.7,2.6-0.7c2.4,0,3,1.6,3,3.2v2.9c0,0.7,0,1.3,0.1,1.9H229z
		 M228.7,759.1c-1.5,0-3.3,0.2-3.3,1.8c0,0.9,0.6,1.4,1.3,1.4c1,0,1.7-0.6,1.9-1.3c0-0.1,0.1-0.3,0.1-0.5V759.1z"/>
	<path id="XMLID_191_" d="M239.2,751.6v9.4c0,0.7,0,1.5,0.1,2h-1.3l-0.1-1.4h0c-0.4,0.9-1.4,1.5-2.7,1.5c-1.9,0-3.3-1.6-3.3-4
		c0-2.6,1.6-4.2,3.5-4.2c1.2,0,2,0.6,2.4,1.2h0v-4.7H239.2z M237.7,758.4c0-0.2,0-0.4-0.1-0.6c-0.2-0.9-1-1.6-2.1-1.6
		c-1.5,0-2.3,1.3-2.3,3c0,1.6,0.8,2.9,2.3,2.9c1,0,1.8-0.6,2.1-1.7c0-0.2,0.1-0.4,0.1-0.6V758.4z"/>
	<path id="XMLID_194_" d="M245.8,763.1l-0.1-1h0c-0.4,0.6-1.3,1.2-2.4,1.2c-1.6,0-2.4-1.1-2.4-2.2c0-1.9,1.7-2.9,4.7-2.9v-0.2
		c0-0.6-0.2-1.8-1.8-1.8c-0.7,0-1.5,0.2-2,0.6l-0.3-0.9c0.6-0.4,1.6-0.7,2.6-0.7c2.4,0,3,1.6,3,3.2v2.9c0,0.7,0,1.3,0.1,1.9H245.8z
		 M245.6,759.1c-1.5,0-3.3,0.2-3.3,1.8c0,0.9,0.6,1.4,1.3,1.4c1,0,1.7-0.6,1.9-1.3c0-0.1,0.1-0.3,0.1-0.5V759.1z"/>
	<path id="XMLID_197_" d="M249.3,757.8c0-1,0-1.8-0.1-2.6h1.3l0.1,1.3h0c0.6-1,1.5-1.5,2.8-1.5c1.9,0,3.3,1.6,3.3,4
		c0,2.8-1.7,4.2-3.6,4.2c-1,0-1.9-0.5-2.4-1.2h0v4.2h-1.4V757.8z M250.7,759.9c0,0.2,0,0.4,0.1,0.6c0.3,1,1.1,1.7,2.1,1.7
		c1.5,0,2.4-1.2,2.4-3c0-1.6-0.8-2.9-2.3-2.9c-1,0-1.9,0.7-2.1,1.8c0,0.2-0.1,0.4-0.1,0.6V759.9z"/>
	<path id="XMLID_200_" d="M260.2,753v2.2h2v1.1h-2v4.2c0,1,0.3,1.5,1.1,1.5c0.4,0,0.6,0,0.8-0.1l0.1,1.1c-0.3,0.1-0.7,0.2-1.3,0.2
		c-0.7,0-1.2-0.2-1.5-0.6c-0.4-0.4-0.5-1.1-0.5-2v-4.3h-1.2v-1.1h1.2v-1.9L260.2,753z"/>
	<path id="XMLID_202_" d="M268.1,763.1l-0.1-1h0c-0.4,0.6-1.3,1.2-2.4,1.2c-1.6,0-2.4-1.1-2.4-2.2c0-1.9,1.7-2.9,4.7-2.9v-0.2
		c0-0.6-0.2-1.8-1.8-1.8c-0.7,0-1.5,0.2-2,0.6l-0.3-0.9c0.6-0.4,1.6-0.7,2.6-0.7c2.4,0,3,1.6,3,3.2v2.9c0,0.7,0,1.3,0.1,1.9H268.1z
		 M267.9,759.1c-1.5,0-3.3,0.2-3.3,1.8c0,0.9,0.6,1.4,1.3,1.4c1,0,1.7-0.6,1.9-1.3c0-0.1,0.1-0.3,0.1-0.5V759.1z"/>
	<path id="XMLID_205_" d="M278.3,751.6v9.4c0,0.7,0,1.5,0.1,2h-1.3l-0.1-1.4h0c-0.4,0.9-1.4,1.5-2.7,1.5c-1.9,0-3.3-1.6-3.3-4
		c0-2.6,1.6-4.2,3.5-4.2c1.2,0,2,0.6,2.4,1.2h0v-4.7H278.3z M276.9,758.4c0-0.2,0-0.4-0.1-0.6c-0.2-0.9-1-1.6-2.1-1.6
		c-1.5,0-2.3,1.3-2.3,3c0,1.6,0.8,2.9,2.3,2.9c1,0,1.8-0.6,2.1-1.7c0-0.2,0.1-0.4,0.1-0.6V758.4z"/>
	<path id="XMLID_208_" d="M285,763.1l-0.1-1h0c-0.4,0.6-1.3,1.2-2.4,1.2c-1.6,0-2.4-1.1-2.4-2.2c0-1.9,1.7-2.9,4.7-2.9v-0.2
		c0-0.6-0.2-1.8-1.8-1.8c-0.7,0-1.5,0.2-2,0.6l-0.3-0.9c0.6-0.4,1.6-0.7,2.6-0.7c2.4,0,3,1.6,3,3.2v2.9c0,0.7,0,1.3,0.1,1.9H285z
		 M284.8,759.1c-1.5,0-3.3,0.2-3.3,1.8c0,0.9,0.6,1.4,1.3,1.4c1,0,1.7-0.6,1.9-1.3c0-0.1,0.1-0.3,0.1-0.5V759.1z"/>
	<path id="XMLID_211_" d="M298.6,751.6v9.4c0,0.7,0,1.5,0.1,2h-1.3l-0.1-1.4h0c-0.4,0.9-1.4,1.5-2.7,1.5c-1.9,0-3.3-1.6-3.3-4
		c0-2.6,1.6-4.2,3.5-4.2c1.2,0,2,0.6,2.4,1.2h0v-4.7H298.6z M297.2,758.4c0-0.2,0-0.4-0.1-0.6c-0.2-0.9-1-1.6-2.1-1.6
		c-1.5,0-2.3,1.3-2.3,3c0,1.6,0.8,2.9,2.3,2.9c1,0,1.8-0.6,2.1-1.7c0-0.2,0.1-0.4,0.1-0.6V758.4z"/>
	<path id="XMLID_214_" d="M305.3,763.1l-0.1-1h0c-0.4,0.6-1.3,1.2-2.4,1.2c-1.6,0-2.4-1.1-2.4-2.2c0-1.9,1.7-2.9,4.7-2.9v-0.2
		c0-0.6-0.2-1.8-1.8-1.8c-0.7,0-1.5,0.2-2,0.6l-0.3-0.9c0.6-0.4,1.6-0.7,2.6-0.7c2.4,0,3,1.6,3,3.2v2.9c0,0.7,0,1.3,0.1,1.9H305.3z
		 M305.1,759.1c-1.5,0-3.3,0.2-3.3,1.8c0,0.9,0.6,1.4,1.3,1.4c1,0,1.7-0.6,1.9-1.3c0-0.1,0.1-0.3,0.1-0.5V759.1z"/>
	<path id="XMLID_217_" d="M7.5,775.3c0.4-1.4,1.1-3.1,1.5-3.8l0.9-0.1c-0.4,1-0.8,2.6-1,3.8L7.5,775.3z M10,775.3
		c0.4-1.4,1.1-3.1,1.5-3.8l0.9-0.1c-0.4,1-0.8,2.6-1,3.8L10,775.3z"/>
	<path id="XMLID_220_" d="M23.1,777.7c-0.1-1.5-0.2-3.3-0.2-4.7h0c-0.4,1.3-0.8,2.6-1.4,4.1l-1.9,5.3h-1.1l-1.8-5.2
		c-0.5-1.5-1-2.9-1.3-4.2h0c0,1.4-0.1,3.2-0.2,4.8l-0.3,4.7h-1.3l0.8-10.9h1.8l1.9,5.3c0.5,1.3,0.8,2.5,1.1,3.7h0
		c0.3-1.1,0.7-2.3,1.1-3.7l1.9-5.3H24l0.7,10.9h-1.4L23.1,777.7z"/>
	<path id="XMLID_222_" d="M28.6,772.4c0,0.5-0.3,0.9-0.9,0.9c-0.5,0-0.9-0.4-0.9-0.9c0-0.5,0.4-0.9,0.9-0.9
		C28.3,771.5,28.6,771.9,28.6,772.4z M27,782.4v-7.8h1.4v7.8H27z"/>
	<path id="XMLID_225_" d="M36.4,782.2c-0.4,0.2-1.2,0.5-2.2,0.5c-2.4,0-3.9-1.6-3.9-4c0-2.4,1.6-4.1,4.2-4.1c0.8,0,1.6,0.2,2,0.4
		l-0.3,1.1c-0.3-0.2-0.9-0.4-1.6-0.4c-1.8,0-2.8,1.3-2.8,3c0,1.8,1.2,2.9,2.7,2.9c0.8,0,1.3-0.2,1.7-0.4L36.4,782.2z"/>
	<path id="XMLID_227_" d="M38,777.1c0-0.9,0-1.7-0.1-2.4h1.2l0,1.5h0.1c0.4-1,1.2-1.7,2.2-1.7c0.2,0,0.3,0,0.4,0v1.3
		c-0.1,0-0.3,0-0.5,0c-1,0-1.7,0.8-1.9,1.8c0,0.2-0.1,0.4-0.1,0.7v4.2H38V777.1z"/>
	<path id="XMLID_229_" d="M50.2,778.5c0,2.9-2,4.1-3.9,4.1c-2.1,0-3.7-1.5-3.7-4c0-2.6,1.7-4.1,3.9-4.1
		C48.7,774.5,50.2,776.1,50.2,778.5z M44,778.6c0,1.7,1,3,2.4,3c1.4,0,2.4-1.3,2.4-3c0-1.3-0.7-3-2.3-3
		C44.7,775.5,44,777.1,44,778.6z"/>
	<path id="XMLID_232_" d="M51.8,781c0.4,0.3,1.2,0.6,1.9,0.6c1,0,1.5-0.5,1.5-1.2c0-0.7-0.4-1-1.5-1.4c-1.4-0.5-2.1-1.3-2.1-2.2
		c0-1.3,1-2.3,2.7-2.3c0.8,0,1.5,0.2,1.9,0.5l-0.4,1c-0.3-0.2-0.9-0.5-1.6-0.5c-0.8,0-1.3,0.5-1.3,1.1c0,0.6,0.5,0.9,1.5,1.3
		c1.4,0.5,2.1,1.2,2.1,2.4c0,1.4-1.1,2.3-2.9,2.3c-0.9,0-1.6-0.2-2.2-0.5L51.8,781z"/>
	<path id="XMLID_234_" d="M65.5,778.5c0,2.9-2,4.1-3.9,4.1c-2.1,0-3.7-1.5-3.7-4c0-2.6,1.7-4.1,3.9-4.1
		C63.9,774.5,65.5,776.1,65.5,778.5z M59.3,778.6c0,1.7,1,3,2.4,3c1.4,0,2.4-1.3,2.4-3c0-1.3-0.7-3-2.3-3
		C60,775.5,59.3,777.1,59.3,778.6z"/>
	<path id="XMLID_237_" d="M67.4,782.4v-6.7h-1.1v-1.1h1.1v-0.4c0-1.1,0.2-2.1,0.9-2.7c0.5-0.5,1.2-0.7,1.9-0.7
		c0.5,0,0.9,0.1,1.2,0.2l-0.2,1.1c-0.2-0.1-0.5-0.2-0.9-0.2c-1.2,0-1.5,1.1-1.5,2.3v0.4h1.9v1.1h-1.9v6.7H67.4z"/>
	<path id="XMLID_239_" d="M73.9,772.4v2.2h2v1.1h-2v4.2c0,1,0.3,1.5,1.1,1.5c0.4,0,0.6,0,0.8-0.1l0.1,1.1c-0.3,0.1-0.7,0.2-1.3,0.2
		c-0.7,0-1.2-0.2-1.5-0.6c-0.4-0.4-0.5-1.1-0.5-2v-4.3h-1.2v-1.1h1.2v-1.9L73.9,772.4z"/>
	<path id="XMLID_241_" d="M82.6,782.4v-4.6l-3.4-6.3h1.6l1.5,3c0.4,0.8,0.7,1.5,1.1,2.2h0c0.3-0.7,0.7-1.4,1.1-2.2l1.6-3h1.6
		l-3.6,6.2v4.6H82.6z"/>
	<path id="XMLID_243_" d="M90.3,772.4c0,0.5-0.3,0.9-0.9,0.9c-0.5,0-0.9-0.4-0.9-0.9c0-0.5,0.4-0.9,0.9-0.9
		C89.9,771.5,90.3,771.9,90.3,772.4z M88.7,782.4v-7.8h1.4v7.8H88.7z"/>
	<path id="XMLID_246_" d="M95.9,771.7c0.6-0.1,1.6-0.2,2.6-0.2c1.4,0,2.3,0.2,3,0.8c0.6,0.4,0.9,1.1,0.9,1.9c0,1-0.7,2-1.8,2.4v0
		c1,0.3,2.2,1.1,2.2,2.7c0,0.9-0.4,1.6-0.9,2.2c-0.8,0.7-2,1-3.8,1c-1,0-1.7-0.1-2.2-0.1V771.7z M97.3,776.2h1.3
		c1.5,0,2.4-0.8,2.4-1.8c0-1.3-1-1.8-2.4-1.8c-0.6,0-1,0-1.2,0.1V776.2z M97.3,781.4c0.3,0,0.7,0.1,1.2,0.1c1.5,0,2.8-0.5,2.8-2.1
		c0-1.5-1.3-2.1-2.8-2.1h-1.2V781.4z"/>
	<path id="XMLID_250_" d="M109,782.4l-0.1-1h0c-0.4,0.6-1.3,1.2-2.4,1.2c-1.6,0-2.4-1.1-2.4-2.2c0-1.9,1.7-2.9,4.7-2.9v-0.2
		c0-0.6-0.2-1.8-1.8-1.8c-0.7,0-1.5,0.2-2,0.6l-0.3-0.9c0.6-0.4,1.6-0.7,2.6-0.7c2.4,0,3,1.6,3,3.2v2.9c0,0.7,0,1.3,0.1,1.9H109z
		 M108.8,778.5c-1.5,0-3.3,0.2-3.3,1.8c0,0.9,0.6,1.4,1.3,1.4c1,0,1.7-0.6,1.9-1.3c0-0.1,0.1-0.3,0.1-0.5V778.5z"/>
	<path id="XMLID_253_" d="M114,772.4c0,0.5-0.3,0.9-0.9,0.9c-0.5,0-0.9-0.4-0.9-0.9c0-0.5,0.4-0.9,0.9-0.9
		C113.7,771.5,114,771.9,114,772.4z M112.4,782.4v-7.8h1.4v7.8H112.4z"/>
	<path id="XMLID_256_" d="M117.9,772.4v2.2h2v1.1h-2v4.2c0,1,0.3,1.5,1.1,1.5c0.4,0,0.6,0,0.8-0.1l0.1,1.1c-0.3,0.1-0.7,0.2-1.3,0.2
		c-0.7,0-1.2-0.2-1.5-0.6c-0.4-0.4-0.5-1.1-0.5-2v-4.3h-1.2v-1.1h1.2v-1.9L117.9,772.4z"/>
	<path id="XMLID_258_" d="M123.1,772.4c0,0.5-0.3,0.9-0.9,0.9c-0.5,0-0.9-0.4-0.9-0.9c0-0.5,0.4-0.9,0.9-0.9
		C122.8,771.5,123.1,771.9,123.1,772.4z M121.5,782.4v-7.8h1.4v7.8H121.5z"/>
	<path id="XMLID_261_" d="M127.2,771.4c-0.4,1.4-1.1,3.1-1.5,3.8l-0.9,0.1c0.3-1,0.8-2.6,1-3.8L127.2,771.4z M129.6,771.4
		c-0.4,1.4-1.1,3.1-1.5,3.8l-0.9,0.1c0.4-1,0.8-2.6,1-3.8L129.6,771.4z"/>
	<path id="XMLID_264_" d="M134,778.8c0,1.9,1.3,2.7,2.7,2.7c1,0,1.6-0.2,2.2-0.4l0.2,1c-0.5,0.2-1.4,0.5-2.6,0.5
		c-2.4,0-3.8-1.6-3.8-3.9c0-2.4,1.4-4.2,3.7-4.2c2.6,0,3.2,2.2,3.2,3.7c0,0.3,0,0.5,0,0.7H134z M138.1,777.8c0-0.9-0.4-2.3-2-2.3
		c-1.4,0-2.1,1.3-2.2,2.3H138.1z"/>
	<path id="XMLID_267_" d="M151.4,771v9.4c0,0.7,0,1.5,0.1,2h-1.3l-0.1-1.4h0c-0.4,0.9-1.4,1.5-2.7,1.5c-1.9,0-3.3-1.6-3.3-4
		c0-2.6,1.6-4.2,3.5-4.2c1.2,0,2,0.6,2.4,1.2h0V771H151.4z M150,777.8c0-0.2,0-0.4-0.1-0.6c-0.2-0.9-1-1.6-2.1-1.6
		c-1.5,0-2.3,1.3-2.3,3c0,1.6,0.8,2.9,2.3,2.9c1,0,1.8-0.6,2.1-1.7c0-0.2,0.1-0.4,0.1-0.6V777.8z"/>
	<path id="XMLID_270_" d="M158.1,782.4l-0.1-1h0c-0.4,0.6-1.3,1.2-2.4,1.2c-1.6,0-2.4-1.1-2.4-2.2c0-1.9,1.7-2.9,4.7-2.9v-0.2
		c0-0.6-0.2-1.8-1.8-1.8c-0.7,0-1.5,0.2-2,0.6l-0.3-0.9c0.6-0.4,1.6-0.7,2.6-0.7c2.4,0,3,1.6,3,3.2v2.9c0,0.7,0,1.3,0.1,1.9H158.1z
		 M157.9,778.5c-1.5,0-3.3,0.2-3.3,1.8c0,0.9,0.6,1.4,1.3,1.4c1,0,1.7-0.6,1.9-1.3c0-0.1,0.1-0.3,0.1-0.5V778.5z"/>
	<path id="XMLID_273_" d="M163,775.3c0.4-1.4,1.1-3.1,1.5-3.8l0.9-0.1c-0.4,1-0.8,2.6-1,3.8L163,775.3z M165.4,775.3
		c0.4-1.4,1.1-3.1,1.5-3.8l0.9-0.1c-0.4,1-0.8,2.6-1,3.8L165.4,775.3z"/>
	<path id="XMLID_276_" d="M170.8,771.6v6.4c0,2.4,1.1,3.5,2.5,3.5c1.6,0,2.6-1.1,2.6-3.5v-6.4h1.4v6.3c0,3.3-1.8,4.7-4.1,4.7
		c-2.2,0-3.9-1.3-3.9-4.6v-6.4H170.8z"/>
	<path id="XMLID_278_" d="M179.7,782.4c0-0.5,0.1-1.3,0.1-2V771h1.4v4.9h0c0.5-0.9,1.4-1.4,2.7-1.4c1.9,0,3.3,1.6,3.3,4
		c0,2.8-1.8,4.2-3.5,4.2c-1.1,0-2-0.4-2.6-1.5h0l-0.1,1.3H179.7z M181.2,779.3c0,0.2,0,0.4,0.1,0.5c0.3,1,1.1,1.7,2.1,1.7
		c1.5,0,2.4-1.2,2.4-3c0-1.6-0.8-2.9-2.3-2.9c-1,0-1.9,0.7-2.2,1.7c0,0.2-0.1,0.4-0.1,0.6V779.3z"/>
	<path id="XMLID_281_" d="M195.5,780.3c0,0.8,0,1.5,0.1,2.1h-1.3l-0.1-1.3h0c-0.4,0.6-1.2,1.5-2.6,1.5c-1.2,0-2.7-0.7-2.7-3.4v-4.6
		h1.4v4.3c0,1.5,0.5,2.5,1.7,2.5c1,0,1.6-0.7,1.9-1.3c0.1-0.2,0.1-0.5,0.1-0.7v-4.8h1.4V780.3z"/>
	<path id="XMLID_283_" d="M197.9,776.7c0-0.8,0-1.5-0.1-2.1h1.3l0.1,1.3h0c0.4-0.7,1.3-1.5,2.6-1.5c1.1,0,2.8,0.6,2.8,3.3v4.7h-1.4
		v-4.5c0-1.3-0.5-2.3-1.8-2.3c-0.9,0-1.7,0.7-1.9,1.5c-0.1,0.2-0.1,0.4-0.1,0.7v4.7h-1.4V776.7z"/>
	<path id="XMLID_285_" d="M208.5,772.4v2.2h2v1.1h-2v4.2c0,1,0.3,1.5,1.1,1.5c0.4,0,0.6,0,0.8-0.1l0.1,1.1c-0.3,0.1-0.7,0.2-1.3,0.2
		c-0.7,0-1.2-0.2-1.5-0.6c-0.4-0.4-0.5-1.1-0.5-2v-4.3h-1.2v-1.1h1.2v-1.9L208.5,772.4z"/>
	<path id="XMLID_287_" d="M218.7,780.3c0,0.8,0,1.5,0.1,2.1h-1.3l-0.1-1.3h0c-0.4,0.6-1.2,1.5-2.6,1.5c-1.2,0-2.7-0.7-2.7-3.4v-4.6
		h1.4v4.3c0,1.5,0.5,2.5,1.7,2.5c1,0,1.6-0.7,1.9-1.3c0.1-0.2,0.1-0.5,0.1-0.7v-4.8h1.4V780.3z"/>
	<path id="XMLID_289_" d="M222.4,771.4c-0.4,1.4-1.1,3.1-1.5,3.8l-0.9,0.1c0.3-1,0.8-2.6,1-3.8L222.4,771.4z M224.8,771.4
		c-0.4,1.4-1.1,3.1-1.5,3.8l-0.9,0.1c0.4-1,0.8-2.6,1-3.8L224.8,771.4z"/>
</g>
<g id="XMLID_7_">
	<path id="XMLID_8_" class="st3" d="M399.6,759.6l-1.3,4h-1.7l4.3-12.6h2l4.3,12.6h-1.7l-1.4-4H399.6z M403.8,758.4l-1.2-3.6
		c-0.3-0.8-0.5-1.6-0.7-2.3h0c-0.2,0.8-0.4,1.5-0.6,2.3l-1.2,3.7H403.8z"/>
	<path id="XMLID_13_" class="st3" d="M408.7,761.9c0.5,0.3,1.4,0.7,2.2,0.7c1.2,0,1.8-0.6,1.8-1.4c0-0.8-0.5-1.2-1.7-1.7
		c-1.6-0.6-2.4-1.5-2.4-2.6c0-1.5,1.2-2.7,3.1-2.7c0.9,0,1.7,0.3,2.2,0.6l-0.4,1.2c-0.4-0.2-1-0.5-1.9-0.5c-1,0-1.5,0.6-1.5,1.2
		c0,0.8,0.5,1.1,1.7,1.5c1.6,0.6,2.4,1.4,2.4,2.7c0,1.6-1.2,2.7-3.4,2.7c-1,0-1.9-0.2-2.6-0.6L408.7,761.9z"/>
	<path id="XMLID_20_" class="st3" d="M426.8,763.3c-0.4,0.2-1.4,0.5-2.6,0.5c-2.7,0-4.5-1.9-4.5-4.6c0-2.8,1.9-4.8,4.9-4.8
		c1,0,1.8,0.2,2.3,0.5l-0.4,1.3c-0.4-0.2-1-0.4-1.9-0.4c-2.1,0-3.2,1.5-3.2,3.4c0,2.1,1.3,3.4,3.2,3.4c0.9,0,1.6-0.2,2-0.5
		L426.8,763.3z"/>
	<path id="XMLID_22_" class="st3" d="M436.8,759c0,3.4-2.3,4.8-4.5,4.8c-2.5,0-4.4-1.8-4.4-4.7c0-3,2-4.8,4.5-4.8
		C435,754.3,436.8,756.2,436.8,759z M429.6,759.1c0,2,1.1,3.5,2.8,3.5c1.6,0,2.8-1.5,2.8-3.5c0-1.5-0.8-3.5-2.7-3.5
		S429.6,757.4,429.6,759.1z"/>
	<path id="XMLID_25_" class="st3" d="M438.9,757.4c0-1.1,0-2-0.1-2.8h1.4l0.1,1.8h0.1c0.4-1.2,1.4-2,2.5-2c0.2,0,0.3,0,0.5,0.1v1.6
		c-0.2,0-0.3-0.1-0.6-0.1c-1.2,0-2,0.9-2.2,2.1c0,0.2-0.1,0.5-0.1,0.8v4.8h-1.6V757.4z"/>
	<path id="XMLID_27_" class="st3" d="M445.7,759.4c0,2.2,1.5,3.2,3.1,3.2c1.2,0,1.9-0.2,2.5-0.5l0.3,1.2c-0.6,0.3-1.6,0.6-3,0.6
		c-2.8,0-4.5-1.8-4.5-4.6c0-2.7,1.6-4.9,4.3-4.9c3,0,3.8,2.6,3.8,4.3c0,0.3,0,0.6-0.1,0.8H445.7z M450.6,758.2c0-1-0.4-2.7-2.3-2.7
		c-1.7,0-2.4,1.5-2.5,2.7H450.6z"/>
	<path id="XMLID_30_" class="st3" d="M454,761.9c0.5,0.3,1.4,0.7,2.2,0.7c1.2,0,1.8-0.6,1.8-1.4c0-0.8-0.5-1.2-1.7-1.7
		c-1.6-0.6-2.4-1.5-2.4-2.6c0-1.5,1.2-2.7,3.1-2.7c0.9,0,1.7,0.3,2.2,0.6l-0.4,1.2c-0.4-0.2-1-0.5-1.9-0.5c-1,0-1.5,0.6-1.5,1.2
		c0,0.8,0.5,1.1,1.7,1.5c1.6,0.6,2.4,1.4,2.4,2.7c0,1.6-1.2,2.7-3.4,2.7c-1,0-1.9-0.2-2.6-0.6L454,761.9z"/>
	<path id="XMLID_38_" class="st3" d="M465.4,761.9c0.5,0.3,1.4,0.7,2.2,0.7c1.2,0,1.8-0.6,1.8-1.4c0-0.8-0.5-1.2-1.7-1.7
		c-1.6-0.6-2.4-1.5-2.4-2.6c0-1.5,1.2-2.7,3.1-2.7c0.9,0,1.7,0.3,2.2,0.6l-0.4,1.2c-0.4-0.2-1-0.5-1.9-0.5c-1,0-1.5,0.6-1.5,1.2
		c0,0.8,0.5,1.1,1.7,1.5c1.6,0.6,2.4,1.4,2.4,2.7c0,1.6-1.2,2.7-3.4,2.7c-1,0-1.9-0.2-2.6-0.6L465.4,761.9z"/>
	<path id="XMLID_41_" class="st3" d="M478.1,763.6l-0.1-1.1h-0.1c-0.5,0.7-1.5,1.3-2.8,1.3c-1.8,0-2.8-1.3-2.8-2.6
		c0-2.2,2-3.4,5.5-3.4v-0.2c0-0.8-0.2-2.1-2.1-2.1c-0.8,0-1.7,0.3-2.4,0.7l-0.4-1.1c0.8-0.5,1.8-0.8,3-0.8c2.8,0,3.5,1.9,3.5,3.7
		v3.4c0,0.8,0,1.6,0.2,2.2H478.1z M473.8,753c0-1.2,0.5-2,1.3-2c0.4,0,0.7,0.2,1.2,0.4c0.3,0.2,0.6,0.3,0.8,0.3
		c0.3,0,0.5-0.2,0.5-0.8h0.9c0,1.3-0.4,1.9-1.3,1.9c-0.4,0-0.8-0.2-1.1-0.4c-0.4-0.2-0.6-0.3-0.8-0.3c-0.3,0-0.4,0.3-0.5,0.8H473.8z
		 M477.8,759c-1.8,0-3.8,0.3-3.8,2c0,1.1,0.7,1.6,1.6,1.6c1.2,0,1.9-0.8,2.2-1.5c0.1-0.2,0.1-0.4,0.1-0.5V759z"/>
	<path id="XMLID_49_" class="st3" d="M490.3,759c0,3.4-2.3,4.8-4.5,4.8c-2.5,0-4.4-1.8-4.4-4.7c0-3,2-4.8,4.5-4.8
		C488.5,754.3,490.3,756.2,490.3,759z M483.1,759.1c0,2,1.1,3.5,2.8,3.5c1.6,0,2.8-1.5,2.8-3.5c0-1.5-0.8-3.5-2.7-3.5
		S483.1,757.4,483.1,759.1z"/>
	<path id="XMLID_52_" class="st3" d="M496.4,757.5c0-1.2,0-2.1-0.1-3h1.5l0.1,1.6h0c0.7-1.1,1.7-1.8,3.2-1.8c2.2,0,3.8,1.9,3.8,4.6
		c0,3.3-2,4.9-4.1,4.9c-1.2,0-2.3-0.5-2.8-1.4h0v4.9h-1.6V757.5z M498,759.9c0,0.2,0,0.5,0.1,0.7c0.3,1.1,1.3,1.9,2.5,1.9
		c1.7,0,2.8-1.4,2.8-3.5c0-1.8-1-3.4-2.7-3.4c-1.1,0-2.2,0.8-2.5,2c-0.1,0.2-0.1,0.5-0.1,0.7V759.9z"/>
	<path id="XMLID_55_" class="st3" d="M507,757.4c0-1.1,0-2-0.1-2.8h1.4l0.1,1.8h0.1c0.4-1.2,1.4-2,2.5-2c0.2,0,0.3,0,0.5,0.1v1.6
		c-0.2,0-0.3-0.1-0.6-0.1c-1.2,0-2,0.9-2.2,2.1c0,0.2-0.1,0.5-0.1,0.8v4.8H507V757.4z"/>
	<path id="XMLID_57_" class="st3" d="M513.9,759.4c0,2.2,1.5,3.2,3.1,3.2c1.2,0,1.9-0.2,2.5-0.5l0.3,1.2c-0.6,0.3-1.6,0.6-3,0.6
		c-2.8,0-4.5-1.8-4.5-4.6c0-2.7,1.6-4.9,4.3-4.9c3,0,3.8,2.6,3.8,4.3c0,0.3,0,0.6-0.1,0.8H513.9z M518.7,758.2c0-1-0.4-2.7-2.3-2.7
		c-1.7,0-2.4,1.5-2.5,2.7H518.7z"/>
	<path id="XMLID_60_" class="st3" d="M524.4,751.9v2.6h2.4v1.3h-2.4v4.9c0,1.1,0.3,1.8,1.2,1.8c0.4,0,0.8-0.1,1-0.1l0.1,1.2
		c-0.3,0.1-0.8,0.2-1.5,0.2c-0.8,0-1.4-0.2-1.8-0.7c-0.5-0.5-0.6-1.3-0.6-2.4v-5h-1.4v-1.3h1.4v-2.2L524.4,751.9z"/>
	<path id="XMLID_62_" class="st3" d="M536.7,759c0,3.4-2.3,4.8-4.5,4.8c-2.5,0-4.4-1.8-4.4-4.7c0-3,2-4.8,4.5-4.8
		C534.9,754.3,536.7,756.2,536.7,759z M529.5,759.1c0,2,1.1,3.5,2.8,3.5c1.6,0,2.8-1.5,2.8-3.5c0-1.5-0.8-3.5-2.7-3.5
		S529.5,757.4,529.5,759.1z"/>
	<path id="XMLID_65_" class="st3" d="M543.7,759.4c0,2.2,1.5,3.2,3.1,3.2c1.2,0,1.9-0.2,2.5-0.5l0.3,1.2c-0.6,0.3-1.6,0.6-3,0.6
		c-2.8,0-4.5-1.8-4.5-4.6c0-2.7,1.6-4.9,4.3-4.9c3,0,3.8,2.6,3.8,4.3c0,0.3,0,0.6-0.1,0.8H543.7z M548.5,758.2c0-1-0.4-2.7-2.3-2.7
		c-1.7,0-2.4,1.5-2.5,2.7H548.5z"/>
	<path id="XMLID_68_" class="st3" d="M556,763.6c0-0.6,0.1-1.5,0.1-2.3v-11h1.6v5.7h0c0.6-1,1.6-1.7,3.1-1.7c2.3,0,3.8,1.9,3.8,4.6
		c0,3.2-2,4.9-4.1,4.9c-1.3,0-2.4-0.5-3-1.7h-0.1l-0.1,1.5H556z M557.8,760c0,0.2,0,0.4,0.1,0.6c0.3,1.1,1.3,1.9,2.5,1.9
		c1.7,0,2.8-1.4,2.8-3.5c0-1.8-0.9-3.4-2.7-3.4c-1.1,0-2.2,0.8-2.5,2c0,0.2-0.1,0.4-0.1,0.7V760z"/>
	<path id="XMLID_71_" class="st3" d="M566.8,757.4c0-1.1,0-2-0.1-2.8h1.4l0.1,1.8h0.1c0.4-1.2,1.4-2,2.5-2c0.2,0,0.3,0,0.5,0.1v1.6
		c-0.2,0-0.3-0.1-0.6-0.1c-1.2,0-2,0.9-2.2,2.1c0,0.2-0.1,0.5-0.1,0.8v4.8h-1.6V757.4z"/>
	<path id="XMLID_73_" class="st3" d="M577.9,763.6l-0.1-1.1h-0.1c-0.5,0.7-1.5,1.3-2.8,1.3c-1.8,0-2.8-1.3-2.8-2.6
		c0-2.2,2-3.4,5.5-3.4v-0.2c0-0.8-0.2-2.1-2.1-2.1c-0.8,0-1.7,0.3-2.4,0.7l-0.4-1.1c0.8-0.5,1.8-0.8,3-0.8c2.8,0,3.5,1.9,3.5,3.7
		v3.4c0,0.8,0,1.6,0.2,2.2H577.9z M577.6,759c-1.8,0-3.8,0.3-3.8,2c0,1.1,0.7,1.6,1.6,1.6c1.2,0,1.9-0.8,2.2-1.5
		c0.1-0.2,0.1-0.4,0.1-0.5V759z"/>
	<path id="XMLID_76_" class="st3" d="M581.9,757c0-0.9,0-1.7-0.1-2.5h1.5l0.1,1.5h0c0.5-0.9,1.5-1.7,3-1.7c1.3,0,3.2,0.8,3.2,3.9
		v5.4H588v-5.2c0-1.5-0.5-2.7-2.1-2.7c-1.1,0-1.9,0.8-2.2,1.7c-0.1,0.2-0.1,0.5-0.1,0.8v5.5h-1.7V757z"/>
	<path id="XMLID_78_" class="st3" d="M598.8,763.3c-0.4,0.2-1.4,0.5-2.6,0.5c-2.7,0-4.5-1.9-4.5-4.6c0-2.8,1.9-4.8,4.9-4.8
		c1,0,1.8,0.2,2.3,0.5l-0.4,1.3c-0.4-0.2-1-0.4-1.9-0.4c-2.1,0-3.2,1.5-3.2,3.4c0,2.1,1.3,3.4,3.2,3.4c0.9,0,1.6-0.2,2-0.5
		L598.8,763.3z"/>
	<path id="XMLID_80_" class="st3" d="M608.8,759c0,3.4-2.3,4.8-4.5,4.8c-2.5,0-4.4-1.8-4.4-4.7c0-3,2-4.8,4.5-4.8
		C607,754.3,608.8,756.2,608.8,759z M601.6,759.1c0,2,1.1,3.5,2.8,3.5c1.6,0,2.8-1.5,2.8-3.5c0-1.5-0.8-3.5-2.7-3.5
		S601.6,757.4,601.6,759.1z"/>
	<path id="XMLID_83_" class="st3" d="M396.8,777.9c0.4-1.6,1.2-3.6,1.8-4.5l1-0.1c-0.4,1.1-0.9,3-1.1,4.4L396.8,777.9z M399.6,777.9
		c0.4-1.6,1.2-3.6,1.7-4.5l1-0.1c-0.4,1.1-0.9,3-1.1,4.4L399.6,777.9z"/>
	<path id="XMLID_86_" class="st3" d="M409.8,786.1v-7.8h-3.8v7.8h-1.6v-7.8H403v-1.3h1.3v-0.3c0-1.3,0.3-2.4,1-3.1
		c0.5-0.5,1.3-0.8,2.3-0.8c0.5,0,1,0.2,1.3,0.3l-0.3,1.2c-0.2-0.1-0.6-0.2-1-0.2c-1.3,0-1.7,1.1-1.7,2.5v0.4h3.8v-0.4
		c0-1.3,0.3-2.4,1.1-3.2c0.6-0.6,1.4-0.8,2.2-0.8c0.6,0,1.1,0.1,1.4,0.3l-0.2,1.3c-0.3-0.1-0.6-0.2-1.1-0.2c-1.4,0-1.8,1.2-1.8,2.6
		v0.5h2.2v1.3h-2.2v7.8H409.8z"/>
	<path id="XMLID_88_" class="st3" d="M420.7,786.1v-7.8h-3.8v7.8h-1.6v-7.8H414v-1.3h1.3v-0.3c0-1.3,0.3-2.4,1-3.1
		c0.5-0.5,1.3-0.8,2.3-0.8c0.5,0,1,0.2,1.3,0.3l-0.3,1.2c-0.2-0.1-0.6-0.2-1-0.2c-1.3,0-1.7,1.1-1.7,2.5v0.4h3.8v-0.4
		c0-1.3,0.3-2.4,1.1-3.2c0.6-0.6,1.4-0.8,2.2-0.8c0.6,0,1.1,0.1,1.4,0.3l-0.2,1.3c-0.3-0.1-0.6-0.2-1.1-0.2c-1.4,0-1.8,1.2-1.8,2.6
		v0.5h2.2v1.3h-2.2v7.8H420.7z"/>
	<path id="XMLID_90_" class="st3" d="M431.6,786.1v-7.8h-3.8v7.8h-1.6v-7.8h-1.3v-1.3h1.3v-0.3c0-1.3,0.3-2.4,1-3.1
		c0.5-0.5,1.3-0.8,2.3-0.8c0.5,0,1,0.2,1.3,0.3l-0.3,1.2c-0.2-0.1-0.6-0.2-1-0.2c-1.3,0-1.7,1.1-1.7,2.5v0.4h3.8v-0.4
		c0-1.3,0.3-2.4,1.1-3.2c0.6-0.6,1.4-0.8,2.2-0.8c0.6,0,1.1,0.1,1.4,0.3l-0.2,1.3c-0.3-0.1-0.6-0.2-1.1-0.2c-1.4,0-1.8,1.2-1.8,2.6
		v0.5h2.2v1.3h-2.2v7.8H431.6z"/>
	<path id="XMLID_92_" class="st3" d="M443,773.3c-0.4,1.6-1.2,3.6-1.7,4.4l-1,0.1c0.4-1.1,0.9-3.1,1.1-4.4L443,773.3z M445.8,773.3
		c-0.4,1.6-1.2,3.6-1.7,4.4l-1,0.1c0.4-1.1,0.9-3.1,1.1-4.4L445.8,773.3z"/>
	<path id="XMLID_95_" class="st3" d="M450.9,781.9c0,2.2,1.5,3.2,3.1,3.2c1.2,0,1.9-0.2,2.5-0.5l0.3,1.2c-0.6,0.3-1.6,0.6-3,0.6
		c-2.8,0-4.5-1.8-4.5-4.6c0-2.7,1.6-4.9,4.3-4.9c3,0,3.8,2.6,3.8,4.3c0,0.3,0,0.6-0.1,0.8H450.9z M455.7,780.7c0-1-0.4-2.7-2.3-2.7
		c-1.7,0-2.4,1.5-2.5,2.7H455.7z"/>
	<path id="XMLID_98_" class="st3" d="M461,777.9c0.4-1.6,1.2-3.6,1.8-4.5l1-0.1c-0.4,1.1-0.9,3-1.1,4.4L461,777.9z M463.8,777.9
		c0.4-1.6,1.2-3.6,1.7-4.5l1-0.1c-0.4,1.1-0.9,3-1.1,4.4L463.8,777.9z"/>
	<path id="XMLID_101_" class="st3" d="M476,779.9c0,4.1-1.5,6.4-4.2,6.4c-2.4,0-4-2.2-4-6.3c0-4.1,1.8-6.3,4.2-6.3
		C474.5,773.7,476,776,476,779.9z M469.3,780.1c0,3.2,1,5,2.5,5c1.7,0,2.5-2,2.5-5.1c0-3-0.8-5-2.5-5
		C470.4,775,469.3,776.8,469.3,780.1z"/>
	<path id="XMLID_104_" class="st3" d="M485.6,779.9c0,4.1-1.5,6.4-4.2,6.4c-2.4,0-4-2.2-4-6.3c0-4.1,1.8-6.3,4.2-6.3
		C484.1,773.7,485.6,776,485.6,779.9z M479,780.1c0,3.2,1,5,2.5,5c1.7,0,2.5-2,2.5-5.1c0-3-0.8-5-2.5-5C480,775,479,776.8,479,780.1
		z"/>
	<path id="XMLID_107_" class="st3" d="M495.2,779.9c0,4.1-1.5,6.4-4.2,6.4c-2.4,0-4-2.2-4-6.3c0-4.1,1.8-6.3,4.2-6.3
		C493.7,773.7,495.2,776,495.2,779.9z M488.6,780.1c0,3.2,1,5,2.5,5c1.7,0,2.5-2,2.5-5.1c0-3-0.8-5-2.5-5
		C489.6,775,488.6,776.8,488.6,780.1z"/>
	<path id="XMLID_110_" class="st3" d="M504.8,779.9c0,4.1-1.5,6.4-4.2,6.4c-2.4,0-4-2.2-4-6.3c0-4.1,1.8-6.3,4.2-6.3
		C503.4,773.7,504.8,776,504.8,779.9z M498.2,780.1c0,3.2,1,5,2.5,5c1.7,0,2.5-2,2.5-5.1c0-3-0.8-5-2.5-5
		C499.3,775,498.2,776.8,498.2,780.1z"/>
	<path id="XMLID_113_" class="st3" d="M514.5,779.9c0,4.1-1.5,6.4-4.2,6.4c-2.4,0-4-2.2-4-6.3c0-4.1,1.8-6.3,4.2-6.3
		C513,773.7,514.5,776,514.5,779.9z M507.8,780.1c0,3.2,1,5,2.5,5c1.7,0,2.5-2,2.5-5.1c0-3-0.8-5-2.5-5
		C508.9,775,507.8,776.8,507.8,780.1z"/>
	<path id="XMLID_116_" class="st3" d="M524.1,779.9c0,4.1-1.5,6.4-4.2,6.4c-2.4,0-4-2.2-4-6.3c0-4.1,1.8-6.3,4.2-6.3
		C522.6,773.7,524.1,776,524.1,779.9z M517.5,780.1c0,3.2,1,5,2.5,5c1.7,0,2.5-2,2.5-5.1c0-3-0.8-5-2.5-5
		C518.5,775,517.5,776.8,517.5,780.1z"/>
	<path id="XMLID_119_" class="st3" d="M528.2,773.3c-0.4,1.6-1.2,3.6-1.7,4.4l-1,0.1c0.4-1.1,0.9-3.1,1.1-4.4L528.2,773.3z
		 M531,773.3c-0.4,1.6-1.2,3.6-1.7,4.4l-1,0.1c0.4-1.1,0.9-3.1,1.1-4.4L531,773.3z"/>
</g>
<g id="XMLID_6_">
</g>
<g id="XMLID_312_">
</g>
<g id="XMLID_313_">
</g>
<g id="XMLID_314_">
</g>
<g id="XMLID_315_">
</g>
<g id="XMLID_316_">
</g>
</svg>
